PathFileType	4	(X/Y/Z)	/Users/FranklinZhao/OpenSimProject/Simulation/Models/Rajapogal_2015/marker_data/trc/SN001_0010_10m_01.trc
DataRate	CameraRate	NumFrames	NumMarkers	Units	OrigDataRate	OrigDataStartFrame	OrigNumFrames
200.000000	200.000000	4	72	mm	200.000000	80	641
Frame#	Time	LPSIS			RPSIS			LICR			RICR			LASIS			RASIS			STER			XPRO			C7			T4			T8			T10			RUA1			RUA2			RUA3			RUA4			RHLE			RHME			RTEMP			RHEAD			LHEAD			LTEMP			RACR			LACR			LUA1			LUA2			LUA3			LUA4			LHLE			LHME			LFA1			LFA2			LFA3			LRSP			LUSP			RFA1			RFA2			RFA3			RRSP			RUSP			LTH1			LTH2			LTH3			LTH4			LFLE			LFME			LSK1			LSK2			LSK3			LSK4			LTAM			LFAL			LFCC			LFMT1			LFMT2			LFMT5			RTH1			RTH2			RTH3			RTH4			RFLE			RFME			RSK1			RSK2			RSK3			RSK4			RFAL			RTAM			RFCC			RFMT1			RFMT2			RFMT5			
		X1	Y1	Z1	X2	Y2	Z2	X3	Y3	Z3	X4	Y4	Z4	X5	Y5	Z5	X6	Y6	Z6	X7	Y7	Z7	X8	Y8	Z8	X9	Y9	Z9	X10	Y10	Z10	X11	Y11	Z11	X12	Y12	Z12	X13	Y13	Z13	X14	Y14	Z14	X15	Y15	Z15	X16	Y16	Z16	X17	Y17	Z17	X18	Y18	Z18	X19	Y19	Z19	X20	Y20	Z20	X21	Y21	Z21	X22	Y22	Z22	X23	Y23	Z23	X24	Y24	Z24	X25	Y25	Z25	X26	Y26	Z26	X27	Y27	Z27	X28	Y28	Z28	X29	Y29	Z29	X30	Y30	Z30	X31	Y31	Z31	X32	Y32	Z32	X33	Y33	Z33	X34	Y34	Z34	X35	Y35	Z35	X36	Y36	Z36	X37	Y37	Z37	X38	Y38	Z38	X39	Y39	Z39	X40	Y40	Z40	X41	Y41	Z41	X42	Y42	Z42	X43	Y43	Z43	X44	Y44	Z44	X45	Y45	Z45	X46	Y46	Z46	X47	Y47	Z47	X48	Y48	Z48	X49	Y49	Z49	X50	Y50	Z50	X51	Y51	Z51	X52	Y52	Z52	X53	Y53	Z53	X54	Y54	Z54	X55	Y55	Z55	X56	Y56	Z56	X57	Y57	Z57	X58	Y58	Z58	X59	Y59	Z59	X60	Y60	Z60	X61	Y61	Z61	X62	Y62	Z62	X63	Y63	Z63	X64	Y64	Z64	X65	Y65	Z65	X66	Y66	Z66	X67	Y67	Z67	X68	Y68	Z68	X69	Y69	Z69	X70	Y70	Z70	X71	Y71	Z71	X72	Y72	Z72	

81	0.4	-1567.805053710938	242.4600982666016	997.447509765625	-1567.178344726562	163.9868774414062	1003.559143066406	-1544.222900390625	333.5802917480469	1054.725463867188	-1533.942138671875	69.58127593994141	1080.605224609375	-1377.262939453125	328.2879333496094	973.7687377929688	-1371.6376953125	72.04514312744141	973.567626953125	-1393.696533203125	227.5383148193359	1443.187744140625	-1336.3525390625	228.168701171875	1234.151245117188	-1523.505615234375	208.0548095703125	1547.26318359375	-1580.689331054688	201.9937744140625	1437.823852539062	-1584.861694335938	198.1122283935547	1303.853515625	-1581.616821289062	203.2078399658203	1258.748291015625	-1462.782104492188	-47.0045280456543	1341.567626953125	-1391.706176757812	-20.58420753479004	1341.489990234375	-1372.905151367188	-38.43173599243164	1272.150146484375	-1441.196899414062	-67.08637237548828	1260.764038085938	-1402.955688476562	-70.88478088378906	1176.067260742188	-1435.439819335938	1.56963062286377	1154.406372070312	-1360.409057617188	149.5886383056641	1703.595581054688	-1319.37548828125	186.7432098388672	1713.427734375	-1323.38232421875	268.6348266601562	1707.885498046875	-1372.834838867188	304.7425842285156	1690.649291992188	-1454.446044921875	34.59592437744141	1504.565307617188	-1510.689208984375	399.3343200683594	1496.90576171875	-1527.164306640625	452.513427734375	1338.649536132812	-1601.591064453125	438.2805480957031	1343.753784179688	-1622.28466796875	452.0356750488281	1260.392822265625	-1548.713500976562	464.8982849121094	1254.585083007812	-1607.148559570312	461.1062927246094	1182.179809570312	-1630.056884765625	390.3139343261719	1176.702758789062	-1550.079833984375	451.611328125	950.7080688476562	-1557.77880859375	496.78662109375	957.4074096679688	-1571.859985351562	464.9833679199219	927.9230346679688	-1599.695556640625	430.9757080078125	896.9072265625	-1625.830932617188	496.8771362304688	904.19873046875	-1245.180297851562	-96.67205047607422	1054.08837890625	-1228.131958007812	-54.79874420166016	1059.863159179688	-1225.00732421875	-67.28365325927734	1027.386962890625	-1199.623901367188	-38.73523712158203	980.4678344726562	-1232.915771484375	-93.57865905761719	968.43701171875	-1293.122436523438	385.1757507324219	741.628173828125	-1336.093627929688	382.54248046875	715.0771484375	-1284.975219726562	371.8220825195312	620.2581176757812	-1232.933715820312	378.4115600585938	658.85693359375	-1215.660888671875	360.5313110351562	556.817626953125	-1212.666259765625	243.8312530517578	545.9320068359375	-1257.061889648438	374.8929748535156	380.4100952148438	-1315.393310546875	366.8931884765625	400.3676147460938	-1342.504150390625	346.4621276855469	319.4327392578125	-1280.721557617188	357.4415588378906	302.4038696289062	-1321.845825195312	236.5759124755859	147.2283477783203	-1371.929077148438	307.2604370117188	140.9255218505859	-1406.404907226562	245.5104675292969	111.8639373779297	-1212.33251953125	277.4589233398438	59.65412139892578	-1218.959106445312	305.9080810546875	60.57599639892578	-1262.178100585938	344.0297546386719	59.222412109375	-1506.974609375	40.21599197387695	733.8057861328125	-1454.821166992188	49.28199005126953	705.11279296875	-1469.492065429688	66.69677734375	620.8574829101562	-1532.769165039062	61.31854248046875	636.6243896484375	-1549.710571289062	84.11656951904297	528.04296875	-1558.592651367188	203.8849945068359	508.994140625	-1631.867309570312	73.97217559814453	358.1847534179688	-1574.1826171875	69.63133239746094	369.4454650878906	-1582.987670898438	91.59829711914062	262.6705932617188	-1645.303100585938	87.17027282714844	277.4786987304688	-1668.71240234375	142.5876770019531	77.60042572021484	-1622.911376953125	215.7967071533203	94.12203979492188	-1701.368408203125	194.0087127685547	51.35099411010742	-1503.569702148438	166.5074310302734	34.0753059387207	-1501.950805664062	124.899528503418	33.46893692016602	-1551.170532226562	81.93418884277344	25.46698951721191	
82	0.405	-1559.89306640625	242.7593078613281	995.4915161132812	-1559.26806640625	164.3252410888672	1001.734313964844	-1536.144287109375	334.002197265625	1052.662719726562	-1525.931762695312	70.35340118408203	1078.599487304688	-1368.8720703125	328.1860961914062	971.8695678710938	-1364.110717773438	71.88783264160156	971.4674682617188	-1384.567626953125	228.1314849853516	1441.113037109375	-1328.031372070312	228.1110229492188	1231.9453125	-1514.888061523438	208.3849029541016	1545.625732421875	-1572.040161132812	202.2625885009766	1436.016723632812	-1576.522583007812	198.3997344970703	1302.22119140625	-1573.412963867188	203.5143737792969	1257.041748046875	-1453.465698242188	-46.90836715698242	1340.255126953125	-1382.38525390625	-20.56397247314453	1340.728149414062	-1362.972778320312	-38.77102661132812	1271.531127929688	-1430.665893554688	-67.53759002685547	1259.665649414062	-1392.72412109375	-71.81929016113281	1175.369262695312	-1424.55419921875	0.6865637302398682	1152.827392578125	-1351.782348632812	150.2611694335938	1701.969116210938	-1310.839721679688	187.3216247558594	1711.883422851562	-1314.767333984375	269.4462890625	1706.093994140625	-1364.411254882812	305.4480895996094	1688.495483398438	-1445.790649414062	35.05217361450195	1502.899047851562	-1502.424194335938	399.5388488769531	1494.949584960938	-1519.863159179688	452.4198303222656	1336.588989257812	-1594.073608398438	437.5185852050781	1341.996948242188	-1615.22119140625	451.0790405273438	1258.877197265625	-1542.003051757812	464.48828125	1252.664672851562	-1600.533447265625	460.2566223144531	1180.45703125	-1623.366455078125	389.4249572753906	1175.236450195312	-1546.393798828125	451.1223449707031	948.5630493164062	-1554.039794921875	496.3525695800781	955.27294921875	-1568.755981445312	464.8003234863281	925.9833374023438	-1596.866088867188	430.6316833496094	895.3785400390625	-1622.538452148438	496.6597290039062	902.9078369140625	-1232.490844726562	-96.91827392578125	1055.7509765625	-1215.810791015625	-54.83488845825195	1061.440185546875	-1211.957641601562	-67.53218841552734	1029.411743164062	-1185.989135742188	-39.08734512329102	982.7625122070312	-1219.04150390625	-93.76560211181641	970.1666259765625	-1284.640502929688	384.9061279296875	740.2095336914062	-1327.318969726562	382.1529846191406	713.4345703125	-1275.771850585938	371.4530944824219	619.103759765625	-1224.011474609375	378.1947631835938	657.5905151367188	-1205.979248046875	360.379150390625	556.0175170898438	-1202.895629882812	243.6391754150391	545.1907958984375	-1242.694702148438	375.2077941894531	378.3279724121094	-1301.728881835938	366.8651428222656	396.224609375	-1326.009033203125	346.6202087402344	314.4359436035156	-1263.62939453125	357.8685913085938	299.54052734375	-1296.82763671875	234.2869262695312	144.6027374267578	-1349.482421875	307.4194641113281	134.9089813232422	-1382.35107421875	246.0325927734375	104.5623245239258	-1187.378662109375	278.998779296875	58.19358062744141	-1194.637451171875	307.694091796875	58.60599517822266	-1237.25830078125	345.5078125	56.70006561279297	-1501.133056640625	39.95093154907227	732.9814453125	-1449.255981445312	48.96635818481445	704.1112060546875	-1464.661499023438	66.66091918945312	619.725341796875	-1527.52294921875	61.33952713012695	636.1113891601562	-1545.673950195312	83.91624450683594	527.4896240234375	-1554.497680664062	203.572998046875	508.3667297363281	-1629.094482421875	73.87532806396484	358.3399047851562	-1571.282836914062	69.61731719970703	369.1220092773438	-1581.027465820312	91.49655151367188	262.7623291015625	-1643.093505859375	87.18993377685547	277.8456420898438	-1668.481079101562	142.8788299560547	78.01432037353516	-1624.009643554688	217.6471099853516	94.04574584960938	-1701.307739257812	194.0604553222656	52.05485534667969	-1503.542236328125	166.5215911865234	34.03464889526367	-1501.851684570312	124.8672256469727	33.41945648193359	-1551.180297851562	82.03366851806641	25.51374053955078	
83	0.41	-1552.074340820312	243.0312957763672	993.612060546875	-1551.570678710938	164.8021545410156	999.9387817382812	-1528.394775390625	334.31005859375	1050.750732421875	-1518.073120117188	71.06963348388672	1076.906982421875	-1360.41064453125	327.9879760742188	969.6297607421875	-1356.6962890625	71.25918579101562	969.9695434570312	-1376.347534179688	228.1611480712891	1439.156005859375	-1319.80859375	227.9668426513672	1229.814453125	-1506.142456054688	208.879638671875	1543.80224609375	-1563.485473632812	202.3649597167969	1434.584838867188	-1568.294555664062	198.7803039550781	1300.546264648438	-1565.252197265625	203.8731079101562	1255.358154296875	-1444.07958984375	-46.99080276489258	1338.85986328125	-1373.042358398438	-20.59643936157227	1339.73486328125	-1353.14013671875	-39.0629997253418	1270.9375	-1420.688232421875	-67.85825347900391	1258.559326171875	-1381.6181640625	-72.29608154296875	1174.55419921875	-1413.733276367188	-0.1598728448152542	1151.382934570312	-1343.284790039062	150.8448638916016	1700.217041015625	-1302.241943359375	187.9238739013672	1710.076416015625	-1306.361694335938	270.0771179199219	1704.283203125	-1355.962036132812	306.281005859375	1686.725830078125	-1437.162963867188	35.47212982177734	1501.307006835938	-1494.049194335938	399.7875061035156	1492.871459960938	-1512.988891601562	453.3164672851562	1334.657958984375	-1586.53466796875	436.6888427734375	1340.104125976562	-1608.162475585938	450.2495727539062	1257.33251953125	-1534.960693359375	464.2506713867188	1250.611938476562	-1593.8017578125	459.3603820800781	1178.71337890625	-1616.212768554688	388.4888610839844	1173.660034179688	-1542.510009765625	450.7464294433594	946.2664794921875	-1550.185668945312	496.0062866210938	953.133056640625	-1565.012939453125	464.3528137207031	923.6283569335938	-1593.500732421875	430.2818908691406	893.6179809570312	-1619.495727539062	496.2477111816406	901.7388916015625	-1220.3486328125	-97.12876892089844	1057.273315429688	-1203.478271484375	-54.81660842895508	1063.18310546875	-1199.318481445312	-67.54449462890625	1031.057006835938	-1172.928344726562	-38.73863983154297	984.6908569335938	-1205.388305664062	-93.86647796630859	971.8726806640625	-1276.375854492188	385.0948486328125	738.8690795898438	-1318.859619140625	381.9107055664062	711.5897216796875	-1266.80224609375	370.8682861328125	617.2919921875	-1215.30615234375	378.1707458496094	656.3749389648438	-1196.708251953125	360.2684020996094	555.1134033203125	-1193.407592773438	243.6182708740234	543.7816162109375	-1228.506103515625	375.3371887207031	376.1285705566406	-1287.9482421875	366.8450012207031	391.8284912109375	-1309.280029296875	346.5881958007812	309.1646423339844	-1246.75390625	358.3321533203125	296.5054931640625	-1276.152709960938	237.795166015625	137.7586212158203	-1326.78076171875	307.8907165527344	129.1468811035156	-1358.536499023438	246.5365905761719	97.51523590087891	-1161.833251953125	281.35205078125	57.15114212036133	-1169.114135742188	309.8519897460938	57.77359008789062	-1212.5810546875	347.2693176269531	54.38829040527344	-1495.620239257812	40.01605987548828	732.20947265625	-1443.50048828125	48.86215209960938	702.8401489257812	-1459.546875	66.50888061523438	618.956787109375	-1522.456665039062	60.85324478149414	635.8448486328125	-1541.508056640625	83.80906677246094	527.1533203125	-1550.3505859375	203.3853607177734	507.7855834960938	-1626.354614257812	73.94095611572266	358.5497436523438	-1568.395141601562	69.6220703125	369.0018615722656	-1579.064086914062	91.61337280273438	262.4547424316406	-1641.099365234375	87.10330963134766	278.1876831054688	-1668.368408203125	142.9685516357422	78.61240386962891	-1623.6796875	217.8285827636719	94.37171173095703	-1701.243041992188	193.9920043945312	52.90721130371094	-1503.52734375	166.5569610595703	33.99812316894531	-1501.917236328125	124.9076614379883	33.32851409912109	-1551.133422851562	82.12516784667969	25.53234672546387	
84	0.415	-1544.181396484375	243.1557922363281	991.7303466796875	-1543.637329101562	165.2082824707031	998.1451416015625	-1519.543334960938	334.5381469726562	1048.623291015625	-1510.393676757812	71.57765960693359	1075.093383789062	-1351.908447265625	327.9161987304688	967.6179809570312	-1349.146118164062	71.03755950927734	967.9494018554688	-1367.32421875	228.7715454101562	1436.99169921875	-1311.543701171875	227.9352264404297	1227.71728515625	-1497.547729492188	209.4688110351562	1542.145263671875	-1554.911987304688	202.8033752441406	1432.815307617188	-1559.911865234375	199.1516876220703	1298.862182617188	-1557.052734375	204.2395629882812	1253.709350585938	-1434.6181640625	-46.84311294555664	1337.544677734375	-1363.848999023438	-20.66301918029785	1338.775024414062	-1343.133056640625	-39.07031631469727	1269.965576171875	-1410.658081054688	-68.21996307373047	1257.418823242188	-1371.129150390625	-73.28180694580078	1173.824951171875	-1403.107543945312	-1.06139349937439	1150.049438476562	-1334.665771484375	151.5409393310547	1698.281494140625	-1293.720092773438	188.6861267089844	1708.34375	-1297.711547851562	270.803466796875	1702.556030273438	-1347.2802734375	306.8037414550781	1684.984985351562	-1428.653442382812	35.80740356445312	1499.8115234375	-1485.693237304688	400.1433715820312	1490.656860351562	-1505.054809570312	452.2276000976562	1332.468994140625	-1578.896362304688	436.07421875	1338.44384765625	-1600.962646484375	449.1627502441406	1255.450805664062	-1529.12646484375	464.7088623046875	1249.203979492188	-1587.13623046875	458.6466674804688	1177.118530273438	-1609.036254882812	387.475830078125	1172.02783203125	-1538.1337890625	451.0973815917969	944.0330200195312	-1545.972900390625	495.7603759765625	950.7769775390625	-1561.520751953125	463.9710998535156	921.973876953125	-1590.47412109375	429.8574829101562	892.154296875	-1616.3349609375	495.7647094726562	900.7495727539062	-1207.760620117188	-97.32602691650391	1058.7060546875	-1191.42333984375	-54.95914840698242	1064.715209960938	-1186.658813476562	-67.53184509277344	1032.765991210938	-1159.938598632812	-38.81807327270508	986.6277465820312	-1191.851928710938	-94.14934539794922	973.4121704101562	-1268.041137695312	385.3706665039062	737.2294311523438	-1310.570922851562	381.6337890625	709.6376953125	-1258.184326171875	370.5365600585938	615.6847534179688	-1206.814819335938	378.1112670898438	654.9906005859375	-1187.577026367188	360.0151672363281	553.8145141601562	-1184.181274414062	243.5856475830078	542.7154541015625	-1214.607666015625	375.7192077636719	374.0083312988281	-1274.554321289062	366.5669250488281	387.4337768554688	-1292.829345703125	346.5954284667969	304.1627807617188	-1230.082397460938	358.9013977050781	293.6288757324219	-1251.681030273438	237.0978698730469	134.7565765380859	-1304.14990234375	308.6377258300781	123.4532318115234	-1334.12890625	246.9630279541016	90.76982116699219	-1137.08740234375	283.0852355957031	56.40112686157227	-1144.497802734375	311.2979431152344	56.90012359619141	-1187.854736328125	348.7723083496094	52.44017791748047	-1489.701416015625	39.83828353881836	731.3734130859375	-1438.041625976562	48.79322052001953	701.5486450195312	-1454.463623046875	66.30410003662109	617.8181762695312	-1517.1953125	60.67661666870117	635.1849975585938	-1537.442626953125	83.63584136962891	526.763671875	-1546.263305664062	203.4263458251953	507.6308898925781	-1623.637817382812	73.69366455078125	358.9300537109375	-1565.23046875	69.23350524902344	369.0086669921875	-1577.044677734375	91.62923431396484	262.3635559082031	-1639.044921875	87.11454772949219	278.6005554199219	-1668.112060546875	143.0742340087891	79.22103881835938	-1623.458862304688	218.4784240722656	94.92211151123047	-1701.2080078125	193.9863433837891	53.77716064453125	-1503.54248046875	166.5178527832031	33.96803283691406	-1501.8466796875	124.9189300537109	33.33867263793945	-1551.14208984375	82.19332885742188	25.62100410461426	
